<?xml version="1.0" encoding="UTF-8"?>
<svg id="Layer_2" data-name="Layer 2" xmlns="http://www.w3.org/2000/svg" xmlns:xlink="http://www.w3.org/1999/xlink" viewBox="0 0 2809.38 3430.43">
  <defs>
    <style>
      .cls-1 {
        fill: url(#linear-gradient-8);
      }

      .cls-2 {
        fill: url(#linear-gradient-7);
      }

      .cls-3 {
        fill: url(#linear-gradient-5);
      }

      .cls-4 {
        fill: url(#linear-gradient-6);
      }

      .cls-5 {
        fill: url(#linear-gradient-9);
      }

      .cls-6 {
        fill: url(#linear-gradient-4);
      }

      .cls-7 {
        fill: url(#linear-gradient-3);
      }

      .cls-8 {
        fill: url(#linear-gradient-2);
      }

      .cls-9 {
        fill: url(#linear-gradient);
      }

      .cls-10 {
        fill: url(#linear-gradient-10);
      }
    </style>
    <linearGradient id="linear-gradient" x1="1834.99" y1="1752.18" x2="1834.99" y2="2864.29" gradientUnits="userSpaceOnUse">
      <stop offset="0" stop-color="#a56e29"/>
      <stop offset="0" stop-color="#a56e29"/>
      <stop offset=".07" stop-color="#be9243"/>
      <stop offset=".13" stop-color="#d3b058"/>
      <stop offset=".21" stop-color="#e3c869"/>
      <stop offset=".28" stop-color="#efd974"/>
      <stop offset=".37" stop-color="#f5e27b"/>
      <stop offset=".47" stop-color="#f8e67e"/>
      <stop offset=".58" stop-color="#f4e178"/>
      <stop offset=".71" stop-color="#ecd268"/>
      <stop offset=".85" stop-color="#ddbb4e"/>
      <stop offset="1" stop-color="#cb9e2d"/>
    </linearGradient>
    <linearGradient id="linear-gradient-2" x1="1835.02" y1="1306.52" x2="1835.02" y2="2696.83" gradientUnits="userSpaceOnUse">
      <stop offset="0" stop-color="#cb9e2d"/>
      <stop offset=".15" stop-color="#ddbb4e"/>
      <stop offset=".29" stop-color="#ecd268"/>
      <stop offset=".42" stop-color="#f4e178"/>
      <stop offset=".53" stop-color="#f8e67e"/>
      <stop offset=".63" stop-color="#f5e27b"/>
      <stop offset=".72" stop-color="#efd974"/>
      <stop offset=".79" stop-color="#e3c869"/>
      <stop offset=".87" stop-color="#d3b058"/>
      <stop offset=".93" stop-color="#be9243"/>
      <stop offset="1" stop-color="#a56e29"/>
      <stop offset="1" stop-color="#a56e29"/>
    </linearGradient>
    <linearGradient id="linear-gradient-3" x1="974.4" y1="1752.18" x2="974.4" y2="2864.29" xlink:href="#linear-gradient"/>
    <linearGradient id="linear-gradient-4" x1="636.35" y1="1801.89" x2="1510" y2="2760.43" xlink:href="#linear-gradient-2"/>
    <linearGradient id="linear-gradient-5" x1="1404.69" y1="-14.57" x2="1404.69" y2="3044.26" xlink:href="#linear-gradient"/>
    <linearGradient id="linear-gradient-6" x1="490.83" y1="1528.54" x2="2302.02" y2="1528.54" xlink:href="#linear-gradient"/>
    <linearGradient id="linear-gradient-7" x1="1404.69" y1="-2844.16" x2="1404.69" y2="-11.33" gradientTransform="translate(0 611.04) scale(1 -1)" xlink:href="#linear-gradient-2"/>
    <linearGradient id="linear-gradient-8" x1="-30.89" y1="-1553.18" x2="2791.72" y2="-1553.18" gradientTransform="translate(0 596.15) scale(1 -1)" xlink:href="#linear-gradient-2"/>
    <linearGradient id="linear-gradient-9" x1="1404.69" y1="1011.01" x2="1404.69" y2="3049.66" xlink:href="#linear-gradient-2"/>
    <linearGradient id="linear-gradient-10" x1="406.58" y1="2030.34" x2="2402.79" y2="2030.34" xlink:href="#linear-gradient-2"/>
  </defs>
  <g id="Layer_1-2" data-name="Layer 1">
    <g>
      <path class="cls-9" d="M2239.6,1412.74l-133.43,104.99c1.01,1.27,99.12,131.59,68.62,294.86-25.95,138.95-135.99,266.77-327.03,379.95l-30.73,18.13c-228.55,134.76-504.82,297.98-497.44,611.37,27.99,2.99,56.33,4.78,85.1,4.78s56.94-1.79,84.85-4.76c-5.87-200.71,159.47-315.22,413.73-465.13l31.01-18.32c235-139.19,372.07-305.69,407.41-494.85,44.96-240.73-96.07-423.37-102.09-431.03Z"/>
      <path class="cls-8" d="M1404.69,2805.61c-20.58,0-41.65-.93-63.96-2.84,4.47-289.24,271.57-446.75,487.08-573.81l30.75-18.13c196.59-116.47,310-249.13,337.11-394.33,25.78-138.07-34.2-252.11-60.83-294.3l100.43-79.02c33.73,50.41,121.49,204.37,85.57,396.71-34.16,182.89-167.86,344.55-397.37,480.49l-30.99,18.3c-244.35,144.08-419.1,262.87-424.2,464.13-22.09,1.89-43.05,2.82-63.59,2.82Z"/>
      <path class="cls-7" d="M906.11,2356.94c254.26,149.92,419.6,264.43,413.73,465.13,27.91,2.97,56.17,4.76,84.85,4.76s57.11-1.8,85.1-4.78c7.38-313.38-268.9-476.6-497.44-611.37l-30.72-18.13c-190.11-112.6-300.01-239.76-326.66-377.91-31.71-164.39,67.52-295.98,68.24-296.9l-133.43-104.99c-6.02,7.66-147.05,190.29-102.09,431.03,35.33,189.16,172.4,355.66,407.42,494.85l31,18.32Z"/>
      <path class="cls-6" d="M1404.69,2805.61c-20.54,0-41.49-.93-63.58-2.82-5.1-201.26-179.86-320.05-424.22-464.13l-30.98-18.32c-229.51-135.91-363.2-297.57-397.35-480.46-36-192.73,51.8-346.43,85.55-396.73l100.57,79.14c-26.68,42.83-87.08,158.86-60.55,296.38,27.85,144.39,141.14,276.31,336.69,392.15l30.75,18.15c215.52,127.06,482.63,284.55,487.1,573.81-22.31,1.91-43.39,2.84-63.97,2.84Z"/>
      <g>
        <path class="cls-3" d="M1404.69,3049.66c-562.06,0-1019.33-457.27-1019.33-1019.32,0-1093.83,923.02-1943.06,962.32-1978.68L1404.69,0l57.01,51.67c39.29,35.62,962.32,884.85,962.32,1978.68,0,562.05-457.27,1019.32-1019.33,1019.32ZM1404.74,233.24c-198.92,202.37-849.61,930.73-849.61,1797.11,0,468.43,381.11,849.54,849.55,849.54s849.55-381.11,849.55-849.54c0-867.86-650.53-1595.05-849.5-1797.11Z"/>
        <path class="cls-4" d="M1404.69,3028.44c-550.36,0-998.11-447.74-998.11-998.1,0-1084.57,916.34-1927.6,955.34-1962.96l42.77-38.75,42.77,38.76c39,35.35,955.34,878.37,955.34,1962.95,0,550.36-447.75,998.1-998.11,998.1ZM1389.61,218.36c-200.73,204.22-855.7,938.44-855.7,1811.99,0,480.14,390.63,870.77,870.78,870.77s870.78-390.62,870.78-870.77c0-875.07-654.87-1608.16-855.6-1812l-15.13-15.37-15.13,15.38Z"/>
        <path class="cls-2" d="M1404.69,3430.43C630.14,3430.43,0,2800.29,0,2025.74c0-507.98,271.06-953.84,676.13-1200.56-62.46,110.66-121.48,230.1-172.35,357.24-206.92,220.91-334,517.48-334,843.32,0,680.94,553.98,1234.91,1234.91,1234.91s1234.91-553.98,1234.91-1234.91c0-326.04-127.23-622.76-334.37-843.71-50.78-126.85-109.46-246.29-171.78-356.73,404.96,246.75,675.93,692.54,675.93,1200.44,0,774.55-630.14,1404.69-1404.69,1404.69Z"/>
      </g>
      <path class="cls-1" d="M617.1,889.15C242.44,1148.46,21.22,1567.54,21.22,2026.04c0,762.85,620.62,1383.47,1383.47,1383.47s1383.47-620.62,1383.47-1383.47c0-458.44-221.16-877.48-595.73-1136.81,49.26,93.05,93.2,187.44,131.02,281.51,217.59,233.57,337.37,537.15,337.37,855.31,0,692.64-563.5,1256.13-1256.13,1256.13S148.55,2718.68,148.55,2026.04c0-317.97,119.64-621.4,337.01-854.91,37.52-93.37,81.64-187.91,131.54-281.98Z"/>
      <path class="cls-5" d="M2141.26,2733.85c11.42-11.95,22.54-24.17,33.38-36.66.34-.39.67-.77,1.01-1.16,10.57-12.23,20.85-24.7,30.84-37.42.56-.71,1.12-1.41,1.67-2.13,9.68-12.4,19.07-25.02,28.19-37.86.78-1.1,1.57-2.19,2.35-3.3,8.77-12.46,17.24-25.12,25.46-37.98,1.01-1.57,2.02-3.13,3.02-4.71,7.84-12.43,15.39-25.04,22.7-37.82,1.2-2.09,2.42-4.17,3.61-6.27,6.95-12.35,13.6-24.87,20.04-37.52,1.33-2.62,2.71-5.21,4.02-7.84,6.07-12.19,11.84-24.54,17.43-37,1.44-3.21,2.95-6.39,4.36-9.62,5.22-11.96,10.12-24.07,14.89-36.25,1.5-3.83,3.08-7.63,4.54-11.48,4.43-11.75,8.53-23.65,12.54-35.6,1.47-4.38,3.03-8.7,4.44-13.1,3.69-11.54,7.04-23.23,10.33-34.95,1.38-4.92,2.89-9.79,4.2-14.74,3-11.36,5.64-22.86,8.25-34.37,1.23-5.4,2.6-10.74,3.74-16.17,2.37-11.28,4.35-22.7,6.34-34.11,1.01-5.76,2.18-11.45,3.09-17.24,1.78-11.38,3.15-22.89,4.55-34.39.72-5.91,1.64-11.76,2.26-17.71,1.26-12.16,2.08-24.45,2.91-36.74.36-5.35.94-10.63,1.22-16,.92-17.67,1.4-35.46,1.4-53.35,0-562.06-457.27-1019.33-1019.33-1019.33s-1019.33,457.27-1019.33,1019.33c0,17.89.49,35.66,1.4,53.33.28,5.37.86,10.65,1.22,15.99.83,12.28,1.64,24.57,2.9,36.73.62,5.91,1.53,11.72,2.24,17.6,1.4,11.53,2.77,23.06,4.55,34.47.91,5.78,2.08,11.46,3.08,17.21,1.99,11.41,3.96,22.82,6.33,34.1,1.14,5.43,2.51,10.77,3.74,16.16,2.61,11.51,5.25,23.01,8.25,34.37,1.3,4.92,2.8,9.76,4.17,14.66,3.29,11.74,6.64,23.44,10.34,35,1.4,4.36,2.95,8.65,4.4,12.98,4.01,12,8.13,23.94,12.58,35.73,1.42,3.77,2.96,7.47,4.43,11.21,4.79,12.26,9.72,24.44,14.96,36.47,1.38,3.17,2.86,6.29,4.28,9.45,5.61,12.51,11.39,24.9,17.48,37.14,1.28,2.57,2.62,5.1,3.93,7.66,6.47,12.72,13.15,25.31,20.13,37.71,1.13,2.01,2.3,3.99,3.45,5.99,7.34,12.85,14.93,25.53,22.8,38.02.97,1.53,1.96,3.04,2.93,4.57,8.23,12.89,16.71,25.59,25.49,38.08.75,1.07,1.51,2.12,2.27,3.19,9.12,12.87,18.52,25.51,28.21,37.94.53.68,1.07,1.36,1.6,2.04,9.99,12.74,20.27,25.22,30.84,37.47.32.37.65.74.97,1.12,10.83,12.5,21.95,24.73,33.36,36.69.13.13.25.27.38.4,11.59,12.13,23.47,23.98,35.65,35.53,0,0,.01.01.01.01h0c182.84,173.51,429.58,280.31,700.94,280.31s517.66-106.6,700.45-279.84h0c12.19-11.56,24.09-23.41,35.7-35.55.14-.14.28-.29.41-.43ZM1404.69,2879.89c-468.44,0-849.55-381.11-849.55-849.54s381.11-849.55,849.55-849.55,849.55,381.11,849.55,849.55-381.11,849.54-849.55,849.54Z"/>
      <path class="cls-10" d="M1404.69,3028.44c-256.07,0-499.8-97.47-686.32-274.48-11.96-11.34-23.58-22.94-34.94-34.82-11.53-12.1-22.42-24.08-33.04-36.33-11.32-13.06-21.38-25.31-31.16-37.76l-1.58-2.01c-9.48-12.17-18.68-24.54-27.62-37.14l-1.31-1.84c-9.5-13.51-17.82-25.93-25.88-38.55l-2.92-4.56c-7.68-12.17-15.1-24.6-22.28-37.18l-3.38-5.87c-6.84-12.14-13.39-24.48-19.72-36.91l-3.85-7.54c-5.95-11.94-11.61-24.06-17.1-36.33l-4.21-9.28c-5.12-11.73-9.95-23.67-14.64-35.67l-4.34-10.98c-4.33-11.54-8.37-23.23-12.3-34.98l-4.32-12.73c-3.6-11.3-6.88-22.76-10.1-34.24,0,0-3.34-11.5-4.1-14.38-2.92-11.09-5.49-22.36-8.06-33.64,0,0-2.99-12.66-3.66-15.81-2.23-10.61-4.09-21.33-5.96-32.06l-1.47-8.12c-.62-3.32-1.25-6.65-1.77-10.03-1.65-10.42-2.91-20.93-4.19-31.46l-1.23-9.57c-.45-3.32-.9-6.61-1.24-9.93-1.18-11.4-1.96-22.9-2.73-34.4,0,0-1.16-14.38-1.32-17.26-.89-17.28-1.38-34.69-1.38-52.22,0-550.36,447.75-998.11,998.11-998.11s998.11,447.75,998.11,998.11c0,17.53-.48,34.95-1.37,52.26-.16,2.86-1.2,15.67-1.2,15.67-.88,13.08-1.66,24.58-2.84,35.98-.35,3.4-.82,6.78-1.27,10.13l-1.22,9.53c-1.27,10.49-2.55,20.95-4.17,31.34-.53,3.4-1.16,6.74-1.78,10.07l-1.24,6.78c-2.05,11.79-3.95,22.67-6.2,33.43-.65,3.11-3.67,15.81-3.67,15.81-2.56,11.3-5.14,22.55-8.08,33.66-.79,3.01-4.1,14.38-4.1,14.38-3.22,11.54-6.5,22.98-10.11,34.28l-4.35,12.83c-3.92,11.69-7.94,23.34-12.28,34.84l-4.44,11.21c-4.67,11.96-9.46,23.81-14.58,35.52l-4.27,9.43c-5.47,12.19-11.11,24.29-17.06,36.21l-3.92,7.63c-6.33,12.46-12.85,24.72-19.65,36.81l-3.52,6.09c-7.17,12.56-14.57,24.91-22.24,37.06l-2.96,4.62c-8.05,12.6-16.34,24.99-24.93,37.2l-2.29,3.21c-8.93,12.6-18.12,24.95-27.61,37.1l-1.65,2.09c-9.78,12.46-19.84,24.66-30.2,36.62-11.61,13.39-22.5,25.37-33.68,37.08-11.78,12.29-23.42,23.9-35.37,35.19-186.46,176.72-430.04,274.04-685.87,274.04ZM1404.69,1159.57c-480.14,0-870.78,390.63-870.78,870.78s390.63,870.77,870.78,870.77,870.78-390.62,870.78-870.77-390.63-870.78-870.78-870.78Z"/>
    </g>
  </g>
</svg>