<?xml version="1.0" encoding="UTF-8"?>
<svg id="logo" xmlns="http://www.w3.org/2000/svg" viewBox="0 0 463.97 505.21">
  <defs>
    <style>
      .cls-1 {
        fill: #056eb0;
      }

      .cls-2 {
        fill: #a41614;
        font-family: Orbitron-Bold, Orbitron;
        font-size: 43px;
        font-weight: 700;
      }

      .cls-3 {
        fill: none;
        stroke: #80b6da;
        stroke-miterlimit: 10;
        stroke-width: 6px;
      }
    </style>
  </defs>
  <g>
    <path class="cls-1" d="M376.4,246.53l-.13-.08h-.15c-.48.02-.97-.05-1.47-.13-.4-.06-.79-.12-1.2-.15-22.2-1.16-45.32-.65-67.68-.15l-7.42.16c-6.19.15-8.03-.03-8.56-.15v-23.57l59.1-.52.16-.03c.83-.28.93-1.51.99-2.18.22-2.7.18-7.05,0-9.69,0-.09-.14-2.1-.59-2.43l-1.43-.32h-.06c-8.75.36-17.82.15-26.59-.05-9.53-.22-19.39-.44-28.88.05-9.7.5-16.95,7.06-17.62,15.95-.5,6.61-.5,15.42-.01,21.92.45,5.91,5.05,12.15,10.71,14.5,4.06,1.68,9.28,1.48,13.89,1.29,1.36-.05,2.64-.11,3.86-.11,9.72-.04,19.63-.02,29.21-.01h14.56c4.72.01,9.44.01,14.16.05.08.12.03.59.01.76l-.02.2c-.13,1.55-.87,4.25-1.41,6.22-.13.47-.25.91-.35,1.29-12.82,48.61-55.32,86.83-105.74,95.09-35.06,5.75-71.74-3.33-100.63-24.9-28.78-21.48-47.05-52.49-51.46-87.32-.22-1.72-.34-3.51-.46-5.23-.13-1.94-.27-3.94-.54-5.89l-.06-.42-13.16-.27v.51c0,6.47.7,13.5,1.99,20.31,10.72,56.43,53.74,101.42,109.6,114.6,10.43,2.46,21.3,3.67,32.25,3.67,24.55,0,49.48-6.06,70.66-17.63,39.57-21.6,67.22-60.57,73.97-104.24l.03-.21c1.59-10.22.88-10.64.46-10.9Z"/>
    <path class="cls-1" d="M376.71,216.63l-.08-.57c-9.42-71.26-68-124.71-139.27-127.08-73.92-2.47-137.99,50.92-148.93,124.19-.07.47-.16,1.01-.25,1.6-.33,2.05-.74,4.6-.75,6.13,0,.68.27,1.17.72,1.31l26.18.02c.06.04.14.1.23.14v36.2c0,.17.06.35.15.67.07.24.21.69.19.85l-.02.18.1.15c.27.41.69.43.95.45h.13c1.07.15,2.86.2,4.72.2,2.29,0,4.67-.08,5.96-.2.49-.05.98-.16,1.45-.27l.42-.09.18-.08c.26-.18.69-1.13.69-1.37v-17.31l.07-.07h40.35c.81,0,1.48-.63,1.59-1.5.28-2.23.28-9.8,0-11.92,0-.01-.24-1.5-1.11-1.5h-40.83l-.07-.07v-18.48l-.15-.15c-.61-.6-1.61-.69-2.34-.75-3.68-.32-7.58-.21-11.36-.1-2.14.06-4.35.12-6.44.1-.67,0-1.34,0-2.01.01-1.34.02-2.71.04-4.04-.08h0c.53-1.93,1.01-3.9,1.48-5.81.98-4,2-8.13,3.46-12.04,18.04-48.42,62.2-82.44,112.5-86.67,58.91-4.95,113.09,28.67,134.85,83.69,4.09,10.34,5.56,19.31,7.27,29.69l.54,3.24c.15.9.4,2.41,1.49,2.77,1.15.38,8.01.22,9.22.14,2.63-.19,2.93-.78,3.04-1,.23-.46.16-1.62-.27-4.6Z"/>
    <path class="cls-1" d="M270.5,216.64c-3.88-8.06-10.86-9.03-17.68-9.33-.08,0-.15,0-.22,0-8.51.36-17.35.15-25.91-.06-9.34-.23-19.01-.46-28.27.06-.58.03-1.16.09-1.75.14l-.48.04c-.69.06-1.25.61-1.32,1.3l-.02.17c-.07.62-.13,1.21-.15,1.84-.5,15.88-.26,33.56,0,47.18,0,.12,0,.25.05.42.39,1.46,1.72,2.48,3.23,2.48h10.19c.79,0,1.44-.64,1.45-1.44l.23-36.52c0-.24.2-.44.44-.44,5.25.01,10.57-.08,15.72-.17,7.56-.13,15.37-.26,23.06-.08.3,0,.57.02.85.04.25.01.5.03.78.04.63.02,1.39.01,2.2,0,1.59-.02,3.4-.04,4.49.17.1.02.15.03.19.05v3.78c-.07.11-.21.32-.32.45h-42.88c-.8,0-1.45.65-1.45,1.45v11.43c0,1.13.92,2.05,2.05,2.05h42.53l.07.07v4.39l-.07.07h-43.92l-.65.65v12.93c0,.41.72.91.77.93l.1.05,42.5.13c5.82-.29,11.42-3.65,14.26-8.55,2.37-4.08,2.5-8.65.36-12.88-.79-1.56-1.9-2.84-2.98-4.08-.28-.33-.56-.65-.84-.98-.13-.16-.13-.4.02-.57,5.13-6.02,6.17-11.32,3.35-17.18Z"/>
    <path class="cls-1" d="M189.35,260.87l.38-52.79-.07-.12c-.08-.14-.3-.52-2.2-.66-2.9-.21-7.99-.27-10.67,0-.8.08-1.7.17-1.77,1.58v49.22s.73,2.77.73,2.77h13.6Z"/>
  </g>
  <text class="cls-2" transform="translate(72.96 336.53) rotate(55.69) scale(.98 1)"><tspan x="0" y="0">E</tspan></text>
  <text class="cls-2" transform="translate(95.72 368.66) rotate(42.46) scale(.98 1)"><tspan x="0" y="0">N</tspan></text>
  <text class="cls-2" transform="translate(127.53 396.55) rotate(28.88) scale(.98 1)"><tspan x="0" y="0">G</tspan></text>
  <text class="cls-2" transform="translate(162.92 414.55) rotate(20.38) scale(.98 1)"><tspan x="0" y="0">I</tspan></text>
  <text class="cls-2" transform="translate(175.74 419.94) rotate(11.99) scale(.98 1)"><tspan x="0" y="0">N</tspan></text>
  <text class="cls-2" transform="translate(216.8 427.72) rotate(-.57) scale(.98 1)"><tspan x="0" y="0">E</tspan></text>
  <text class="cls-2" transform="translate(255.57 426.63) rotate(-12.58) scale(.98 1)"><tspan x="0" y="0">E</tspan></text>
  <text class="cls-2" transform="translate(293.41 417.56) rotate(-24.87) scale(.98 1)"><tspan x="0" y="0">R</tspan></text>
  <text class="cls-2" transform="translate(328.48 399.97) rotate(-32.88) scale(.98 1)"><tspan x="0" y="0">I</tspan></text>
  <text class="cls-2" transform="translate(340.41 392.95) rotate(-41.09) scale(.98 1)"><tspan x="0" y="0">N</tspan></text>
  <text class="cls-2" transform="translate(371.54 364.74) rotate(-54.07) scale(.98 1)"><tspan x="0" y="0">G</tspan></text>
  <path class="cls-3" d="M460.68,221.88c-.46-9.48-1.74-17.78-12.9-19.46-5.43-.85-10.84-1.83-16.23-2.92-6.73-.71-8.7-7.38-10.21-13.09l-2.08-8.64h0c-1.13-2.9-2.07-5.82-2.83-8.77-.87-3.38-.26-6.96,1.64-9.89,3.13-4.83,8-12.14,10.35-15.26,9.43-14.02,8.59-14.69,2.67-25.46-1.73-3.14-3.57-6.23-5.53-9.23-4.55-6.97-8.62-12.09-17.91-10.99,0,0,0,0-.01,0l-22.29,7.57c-2.18.74-4.6.19-6.24-1.42,0,0,0,0,0,0-8.04-9.03-16.87-17.95-26.28-25.47-.76-.61-1.08-1.61-.79-2.55,1.47-4.71,5.79-18.57,5.81-18.63,4.06-11.38.46-16.74-8.33-22.48-4.17-2.72-9.99-5.9-14.54-7.94-8.85-3.97-12.94-3.25-20.08,3.49,0,0,0,0,0,0-4.43,4.87-8.8,9.84-13.09,14.91-1.73,2.05-4.53,2.84-7.06,1.97-10.28-3.56-20.9-6.14-31.64-7.94-2.63-.44-4.77-2.37-5.5-4.93-1.62-5.68-2.96-11.51-4.03-17.5,0,0,0,0,0,0-2.35-8.64-4.96-13.06-14.55-13.92-6.02-.54-14.57-.38-20.63.12-11.7.96-13.91,5.97-16.23,16.75l-2.68,15.35c-.42,1.92-.32,4.15-3.17,4.9-10.34,1.59-20.8,4.89-30.91,8.41-2.4.84-5.05.36-7.02-1.25-4.67-3.81-12.78-10.31-16.86-14.02-10.5-8.8-19.06-3.69-28.1,2.31,0,0-3.12,2.1-4.48,2.68-7.1,3.63-12.75,10.18-10.77,18.77,0,0,0,0,0,0l7.82,22.23c.53,1.51.16,3.19-.96,4.33l-.02.02c-9.15,8.17-17.34,16.49-25.5,26.47-.98,1.2-2.57,1.7-4.05,1.25-4.48-1.35-14.02-4.25-19.22-6.01,0,0,0,0,0,0-13.85-3.5-17.03,1.41-23.55,12.45-2.21,3.75-4.89,8.57-6.43,12.59-4.13,10.81.31,15.15,8.11,21.94,4.39,3.59,8.72,7.26,12.97,11,.51.45.72,1.14.55,1.8-1.12,4.24-6.78,27.84-8.79,36.2-.45,1.86-1.86,3.31-3.71,3.8-6.25,1.66-22.9,5.32-22.9,5.32-6.27,1.93-9.76,7.58-9.45,14.07-.15,1.6,0,5.05,0,5.06.24.56-.39,20.96,3.85,25.38,4.71,4.91,20.12,8.09,27.85,9.41,2.83.48,5.15,2.47,6.08,5.19,3.51,10.33,22.16,44.93,22.07,45.13,1.12.01,15.56.08,37.92.17-14.75-23.67-23.29-51.62-23.29-81.57,0-85.29,69.14-154.44,154.44-154.44s154.44,69.14,154.44,154.44c0,30.39-8.79,58.73-23.95,82.62,25.93.1,42.57.17,42.57.17.5-4.47,24.04-45.91,26.02-55.56.47-2.27,2.18-4.08,4.43-4.64,2.53-.63,4.98-1.3,7.66-1.78l4.03-.72c8.23-1.52,12.61-5.94,13.47-14.57.53-5.31.27-11.86.01-17.23Z"/>
</svg>