<?xml version="1.0" encoding="UTF-8" standalone="no"?>
<!DOCTYPE svg PUBLIC "-//W3C//DTD SVG 1.1//EN" "http://www.w3.org/Graphics/SVG/1.1/DTD/svg11.dtd">
<svg width="100%" height="100%" viewBox="0 0 3508 2481" version="1.1" xmlns="http://www.w3.org/2000/svg" xmlns:xlink="http://www.w3.org/1999/xlink" xml:space="preserve" xmlns:serif="http://www.serif.com/" style="fill-rule:evenodd;clip-rule:evenodd;stroke-linejoin:round;stroke-miterlimit:2;">
    <g transform="matrix(1,0,0,1,-3568.391137,0)">
        <g id="FINAL-HBC-LOGO" serif:id="FINAL HBC LOGO" transform="matrix(1,0,0,1,-175.703351,0)">
            <rect x="3744.094" y="0" width="3507.874" height="2480.315" style="fill:none;"/>
            <g transform="matrix(1,0,0,1,-66488.582828,379.056579)">
                <g transform="matrix(1,0,0,1,7.5,-0.625275)">
                    <g transform="matrix(5.655294,0,0,5.655294,70692.915333,-2382.618878)">
                        <path d="M134.706,526.72C135.07,526.046 135.775,525.626 136.541,525.626C140.944,525.625 155.47,525.625 155.47,525.625C156.623,525.625 157.558,526.558 157.559,527.711C157.565,533.341 157.572,538.441 157.58,540.553C157.648,559.922 157.754,602.811 157.578,620.109C157.564,621.252 156.633,622.171 155.49,622.171L137.319,622.171C136.765,622.171 136.233,621.951 135.842,621.559C135.45,621.167 135.23,620.636 135.23,620.081C135.239,607.275 135.414,598.697 135.226,593.208L135.226,586.773C135.226,586.219 135.006,585.688 134.614,585.296C134.223,584.904 133.691,584.684 133.137,584.684L111.865,584.684C96.313,584.623 75.932,584.575 64.471,584.684L56.611,584.684C56.057,584.684 55.526,584.904 55.134,585.296C54.742,585.688 54.522,586.219 54.522,586.773L54.522,593.776C54.433,597.752 54.469,602.685 54.522,607.753L54.522,620.083C54.522,621.236 53.587,622.171 52.434,622.171L34.532,622.171C33.379,622.171 32.444,621.236 32.443,620.083C32.441,577.946 32.422,545.005 32.5,527.79C32.506,526.592 33.478,525.625 34.676,525.625L52.522,525.625C53.1,525.625 53.654,525.855 54.062,526.264C54.471,526.673 54.699,527.228 54.698,527.806C54.658,539.664 54.429,552.88 54.592,560.492C54.633,562.39 56.26,562.592 56.486,562.62C57.268,562.717 62.912,562.765 70.811,562.781C71.721,562.816 72.634,562.833 73.552,562.833C74.627,562.833 75.694,562.809 76.752,562.762C101.769,561.757 123.384,547.446 134.706,526.72Z" style="fill:rgb(0,108,159);"/>
                    </g>
                    <g transform="matrix(5.661586,0,0,5.661586,70637.052444,-2386.272077)">
                        <path d="M180.798,527.823C180.798,526.673 181.729,525.74 182.879,525.737C186.632,525.731 198.09,525.729 260.5,525.729C269.473,525.729 288.707,523.021 298.316,544.574C303.71,556.672 295.716,569.631 296.772,571.337C300.287,577.019 305.719,578.721 304.937,595.547C301.048,616.139 288.466,620.86 273.218,621.772L182.884,621.772C182.331,621.772 181.801,621.552 181.409,621.161C181.018,620.77 180.798,620.239 180.798,619.686L180.798,527.823ZM270.64,547.588L204.461,547.588C203.309,547.588 202.375,548.522 202.375,549.674L202.375,560.338C202.375,561.491 203.309,562.425 204.461,562.425L270.64,562.425C272.585,562.425 274.45,561.652 275.825,560.277C277.2,558.902 277.972,557.037 277.972,555.092L277.972,554.92C277.972,552.975 277.2,551.11 275.825,549.735C274.45,548.36 272.585,547.588 270.64,547.588ZM275.586,584.563L204.461,584.563C203.908,584.563 203.377,584.782 202.986,585.174C202.595,585.565 202.375,586.095 202.375,586.649L202.375,597.313C202.375,597.866 202.595,598.397 202.986,598.788C203.377,599.18 203.908,599.399 204.461,599.399L275.586,599.399C277.53,599.399 279.395,598.627 280.77,597.252C282.145,595.877 282.918,594.012 282.918,592.067L282.918,591.895C282.918,589.95 282.145,588.085 280.77,586.71C279.395,585.335 277.53,584.563 275.586,584.563Z" style="fill:rgb(0,108,159);"/>
                    </g>
                    <g transform="matrix(5.653562,0,0,5.653562,70636.499956,-2383.600571)">
                        <path d="M336.032,572.621C335.99,573.001 335.996,574.151 336.026,574.47C336.056,574.793 336.089,575.111 336.125,575.426C336.154,575.679 336.185,575.929 336.218,576.177C339.858,603.754 366.656,599.669 386.5,599.655C412.276,599.638 409.559,585.841 414.458,585.929C414.68,585.933 432.41,594.201 432.709,595.426C432.835,595.938 423.149,621.168 389.503,621.779C360.098,622.313 337.396,623.795 321.807,600.297C302.643,571.409 319.352,526.43 362.502,525.734C393.428,525.236 415.013,523.812 431.029,547.789C434.467,552.935 431.335,553.207 425.749,555.996C420.918,558.408 414.399,562.841 412.675,560.375C405.263,549.767 403.614,546.837 361.51,547.801C339.828,548.297 336.588,567.591 336.032,572.621Z" style="fill:rgb(0,108,159);"/>
                    </g>
                    <g transform="matrix(1.606349,0,0,1.606349,57980.728448,-1102.631243)">
                        <path d="M8384.298,1053.678C8344.044,1128.59 8264.928,1179.57 8174,1179.57C8157.621,1179.57 8141.625,1177.916 8126.17,1174.765C8207.79,1169.802 8278.426,1123.882 8317.771,1057.315C8319.089,1055.065 8321.502,1053.683 8324.11,1053.683C8338.448,1053.678 8384.298,1053.678 8384.298,1053.678Z" style="fill:rgb(159,29,33);"/>
                    </g>
                </g>
            </g>
        </g>
    </g>
</svg>
